<?xml version="1.0" encoding="UTF-8" standalone="no"?>
<svg
   version="1.1"
   viewBox="0.0 0.0 355.2729658792651 100.0"
   fill="none"
   stroke="none"
   stroke-linecap="square"
   stroke-miterlimit="10"
   id="svg25"
   sodipodi:docname="MlDevOps.svg"
   inkscape:version="1.1.2 (b8e25be833, 2022-02-05)"
   xmlns:inkscape="http://www.inkscape.org/namespaces/inkscape"
   xmlns:sodipodi="http://sodipodi.sourceforge.net/DTD/sodipodi-0.dtd"
   xmlns:xlink="http://www.w3.org/1999/xlink"
   xmlns="http://www.w3.org/2000/svg"
   xmlns:svg="http://www.w3.org/2000/svg">
  <defs
     id="defs29" />
  <sodipodi:namedview
     id="namedview27"
     pagecolor="#ffffff"
     bordercolor="#666666"
     borderopacity="1.0"
     inkscape:pageshadow="2"
     inkscape:pageopacity="0.0"
     inkscape:pagecheckerboard="0"
     showgrid="false"
     inkscape:zoom="3.5240507"
     inkscape:cx="177.77837"
     inkscape:cy="50.08441"
     inkscape:window-width="1920"
     inkscape:window-height="1001"
     inkscape:window-x="-9"
     inkscape:window-y="-9"
     inkscape:window-maximized="1"
     inkscape:current-layer="g23" />
  <clipPath
     id="p.0">
    <path
       d="m0 0l355.27298 0l0 100.0l-355.27298 0l0 -100.0z"
       clip-rule="nonzero"
       id="path2" />
  </clipPath>
  <g
     clip-path="url(#p.0)"
     id="g23">
    <path
       fill="#000000"
       fill-opacity="0.0"
       d="m0 0l355.27298 0l0 100.0l-355.27298 0z"
       fill-rule="evenodd"
       id="path5"
       style="fill:#f9f9f9" />
    <path
       fill="#000000"
       fill-opacity="0.0"
       d="m-7.186468 -24.89239l110.14173 0l0 122.67716l-110.14173 0z"
       fill-rule="evenodd"
       id="path7"
       style="fill:#f9f9f9" />
    <path
       fill="#000000"
       fill-opacity="0.0"
       d="m84.77165 10.929133l282.70868 0l0 74.614174l-282.70868 0z"
       fill-rule="evenodd"
       id="path11"
       style="fill:#f9f9f9" />
    <path
       fill="#000000"
       fill-opacity="0.0"
       d="m62.468502 0.4849958l86.74016 0l0 29.6063l-86.74016 0z"
       fill-rule="evenodd"
       id="path15"
       style="fill:#f9f9f9" />
    <path
       fill="#000000"
       fill-opacity="0.0"
       d="m-7.187664 60.535435l339.37006 0l0 39.464565l-339.37006 0z"
       fill-rule="evenodd"
       id="path19"
       style="fill:#f9f9f9" />
    <text
       xml:space="preserve"
       style="font-size:92.849px;line-height:1.25;font-family:sans-serif;fill:#f9f9f9;stroke-width:1.74093"
       x="1.9805098"
       y="73.629868"
       id="text2035"
       transform="scale(0.99798215,1.0020219)"><tspan
         id="tspan2033"
         x="1.9805098"
         y="73.629868"
         style="stroke-width:1.74093;fill:#f9f9f9"
         sodipodi:role="line">AI</tspan></text>
    <text
       xml:space="preserve"
       style="font-size:29.3333px;line-height:1.25;font-family:sans-serif;fill:#f9f9f9"
       x="84.071121"
       y="24.403082"
       id="text21811"><tspan
         sodipodi:role="line"
         id="tspan21809"
         x="84.071121"
         y="24.403082">and</tspan></text>
    <path
       style="fill:#f9f9f9;fill-opacity:0;stroke-width:0.283764"
       d="M 3.0659158,73.849675 C 13.784377,48.005631 30.388311,7.9426468 30.703075,7.1650501 L 31.13382,6.1009338 h 5.577031 5.577034 L 56.33367,40.081716 70.379452,74.062498 65.43155,74.14019 c -3.168851,0.04976 -5.012783,-0.0273 -5.128352,-0.214279 -0.09925,-0.160585 -1.640986,-4.12088 -3.426091,-8.800657 l -3.245643,-8.508685 -16.874848,0.06815 -16.874849,0.06815 -2.076376,5.391523 c -1.142007,2.965338 -2.657254,6.891927 -3.367217,8.725754 L 13.147333,74.20438 H 8.03307 c -3.9806928,0 -5.0816568,-0.07862 -4.9671542,-0.354705 z M 50.368174,48.948177 c 0,-0.370443 -13.332186,-33.557736 -13.593913,-33.838799 -0.10955,-0.117643 -3.119967,7.097066 -6.689812,16.032687 -3.569847,8.935622 -6.661271,16.661589 -6.869832,17.168817 l -0.379202,0.922235 h 13.766379 c 9.026216,0 13.76638,-0.09811 13.76638,-0.28494 z"
       id="path32039" />
    <path
       style="fill:#f9f9f9;fill-opacity:0;stroke-width:0.283764"
       d="M 3.0659158,73.849675 C 13.784377,48.005631 30.388311,7.9426468 30.703075,7.1650501 L 31.13382,6.1009338 h 5.577031 5.577034 L 56.33367,40.081716 70.379452,74.062498 65.43155,74.14019 c -3.168851,0.04976 -5.012783,-0.0273 -5.128352,-0.214279 -0.09925,-0.160585 -1.640986,-4.12088 -3.426091,-8.800657 l -3.245643,-8.508685 -16.874848,0.06815 -16.874849,0.06815 -2.076376,5.391523 c -1.142007,2.965338 -2.657254,6.891927 -3.367217,8.725754 L 13.147333,74.20438 H 8.03307 c -3.9806928,0 -5.0816568,-0.07862 -4.9671542,-0.354705 z M 50.368174,48.948177 c 0,-0.370443 -13.332186,-33.557736 -13.593913,-33.838799 -0.10955,-0.117643 -3.119967,7.097066 -6.689812,16.032687 -3.569847,8.935622 -6.661271,16.661589 -6.869832,17.168817 l -0.379202,0.922235 h 13.766379 c 9.026216,0 13.76638,-0.09811 13.76638,-0.28494 z"
       id="path32115" />
    <path
       style="fill:#f9f9f9;fill-opacity:0;stroke-width:0.283764"
       d="M 3.0659158,73.849675 C 13.784377,48.005631 30.388311,7.9426468 30.703075,7.1650501 L 31.13382,6.1009338 h 5.577031 5.577034 L 56.33367,40.081716 70.379452,74.062498 65.43155,74.14019 c -3.168851,0.04976 -5.012783,-0.0273 -5.128352,-0.214279 -0.09925,-0.160585 -1.640986,-4.12088 -3.426091,-8.800657 l -3.245643,-8.508685 -16.874848,0.06815 -16.874849,0.06815 -2.076376,5.391523 c -1.142007,2.965338 -2.657254,6.891927 -3.367217,8.725754 L 13.147333,74.20438 H 8.03307 c -3.9806928,0 -5.0816568,-0.07862 -4.9671542,-0.354705 z M 50.368174,48.948177 c 0,-0.370443 -13.332186,-33.557736 -13.593913,-33.838799 -0.10955,-0.117643 -3.119967,7.097066 -6.689812,16.032687 -3.569847,8.935622 -6.661271,16.661589 -6.869832,17.168817 l -0.379202,0.922235 h 13.766379 c 9.026216,0 13.76638,-0.09811 13.76638,-0.28494 z"
       id="path32302" />
    <path
       style="fill:#f9f9f9;fill-opacity:0;stroke-width:0.283764"
       d="M 3.0659158,73.849675 C 13.784377,48.005631 30.388311,7.9426468 30.703075,7.1650501 L 31.13382,6.1009338 h 5.577031 5.577034 L 56.33367,40.081716 70.379452,74.062498 65.43155,74.14019 c -3.168851,0.04976 -5.012783,-0.0273 -5.128352,-0.214279 -0.09925,-0.160585 -1.640986,-4.12088 -3.426091,-8.800657 l -3.245643,-8.508685 -16.874848,0.06815 -16.874849,0.06815 -2.076376,5.391523 c -1.142007,2.965338 -2.657254,6.891927 -3.367217,8.725754 L 13.147333,74.20438 H 8.03307 c -3.9806928,0 -5.0816568,-0.07862 -4.9671542,-0.354705 z M 50.368174,48.948177 c 0,-0.370443 -13.332186,-33.557736 -13.593913,-33.838799 -0.10955,-0.117643 -3.119967,7.097066 -6.689812,16.032687 -3.569847,8.935622 -6.661271,16.661589 -6.869832,17.168817 l -0.379202,0.922235 h 13.766379 c 9.026216,0 13.76638,-0.09811 13.76638,-0.28494 z"
       id="path32452" />
    <path
       style="fill:#f9f9f9;fill-opacity:0;stroke-width:0.283764"
       d="M 3.0659158,73.849675 C 13.784377,48.005631 30.388311,7.9426468 30.703075,7.1650501 L 31.13382,6.1009338 h 5.577031 5.577034 L 56.33367,40.081716 70.379452,74.062498 65.43155,74.14019 c -3.168851,0.04976 -5.012783,-0.0273 -5.128352,-0.214279 -0.09925,-0.160585 -1.640986,-4.12088 -3.426091,-8.800657 l -3.245643,-8.508685 -16.874848,0.06815 -16.874849,0.06815 -2.076376,5.391523 c -1.142007,2.965338 -2.657254,6.891927 -3.367217,8.725754 L 13.147333,74.20438 H 8.03307 c -3.9806928,0 -5.0816568,-0.07862 -4.9671542,-0.354705 z M 50.368174,48.948177 c 0,-0.370443 -13.332186,-33.557736 -13.593913,-33.838799 -0.10955,-0.117643 -3.119967,7.097066 -6.689812,16.032687 -3.569847,8.935622 -6.661271,16.661589 -6.869832,17.168817 l -0.379202,0.922235 h 13.766379 c 9.026216,0 13.76638,-0.09811 13.76638,-0.28494 z"
       id="path32491" />
    <path
       style="fill:#f9f9f9;fill-opacity:0;stroke-width:0.283764"
       d="M 3.0659158,73.849675 C 13.784377,48.005631 30.388311,7.9426468 30.703075,7.1650501 L 31.13382,6.1009338 h 5.577031 5.577034 L 56.33367,40.081716 70.379452,74.062498 65.43155,74.14019 c -3.168851,0.04976 -5.012783,-0.0273 -5.128352,-0.214279 -0.09925,-0.160585 -1.640986,-4.12088 -3.426091,-8.800657 l -3.245643,-8.508685 -16.874848,0.06815 -16.874849,0.06815 -2.076376,5.391523 c -1.142007,2.965338 -2.657254,6.891927 -3.367217,8.725754 L 13.147333,74.20438 H 8.03307 c -3.9806928,0 -5.0816568,-0.07862 -4.9671542,-0.354705 z M 50.368174,48.948177 c 0,-0.370443 -13.332186,-33.557736 -13.593913,-33.838799 -0.10955,-0.117643 -3.119967,7.097066 -6.689812,16.032687 -3.569847,8.935622 -6.661271,16.661589 -6.869832,17.168817 l -0.379202,0.922235 h 13.766379 c 9.026216,0 13.76638,-0.09811 13.76638,-0.28494 z"
       id="path32530" />
    <use
       id="use39113"
       inkscape:spray-origin="#path32530"
       xlink:href="#path32530"
       x="0"
       y="0"
       width="100%"
       height="100%"
       transform="translate(101.50838,24.796649)"
       style="fill:#f9f9f9" />
    <text
       xml:space="preserve"
       style="font-size:55.9789px;line-height:1.25;font-family:sans-serif;fill:#f9f9f9;stroke-width:1.0496"
       x="81.110847"
       y="73.547508"
       id="text39865"
       transform="scale(0.99394983,1.006087)"><tspan
         sodipodi:role="line"
         id="tspan39863"
         x="81.110847"
         y="73.547508"
         style="font-style:normal;font-variant:normal;font-weight:bold;font-stretch:normal;font-family:sans-serif;-inkscape-font-specification:'sans-serif Bold';stroke-width:1.0496;fill:#f9f9f9">DevOps</tspan></text>
    <text
       xml:space="preserve"
       style="font-size:21.655px;line-height:1.25;font-family:sans-serif;fill:#f9f9f9;stroke-width:1.16009"
       x="0.75967604"
       y="97.255081"
       id="text43907"
       transform="scale(1.0284566,0.97233078)"><tspan
         sodipodi:role="line"
         id="tspan43905"
         x="0.75967604"
         y="97.255081"
         style="stroke-width:1.16009;fill:#f9f9f9">ML DevOps</tspan></text>
  </g>
</svg>
